<?xml version="1.0" encoding="iso-8859-1"?>
<!-- Generator: Adobe Illustrator 19.0.0, SVG Export Plug-In . SVG Version: 6.00 Build 0)  -->
<svg version="1.1" id="Layer_1" xmlns="http://www.w3.org/2000/svg" xmlns:xlink="http://www.w3.org/1999/xlink" x="0px" y="0px"
	 viewBox="0 0 512 512" style="enable-background:new 0 0 512 512;" xml:space="preserve">
<g>
	<g>
		<g>
			<path d="M503.467,55.467H281.6c-4.71,0-8.533,3.823-8.533,8.533v51.2c0,4.71,3.823,8.533,8.533,8.533h8.533v34.133h-68.267
				v-34.133h8.533c4.71,0,8.533-3.823,8.533-8.533V64c0-4.71-3.823-8.533-8.533-8.533H8.533C3.823,55.467,0,59.29,0,64v51.2
				c0,4.71,3.823,8.533,8.533,8.533h8.533V294.4c0,4.71,3.823,8.533,8.533,8.533h8.533V345.6c0,4.71,3.823,8.533,8.533,8.533H76.8
				c4.71,0,8.533-3.823,8.533-8.533v-42.667h51.2V396.8c0,4.71,3.823,8.533,8.533,8.533h8.533V448c0,4.71,3.823,8.533,8.533,8.533
				h34.133c4.71,0,8.533-3.823,8.533-8.533v-42.667h85.333V448c0,4.71,3.823,8.533,8.533,8.533H332.8
				c4.71,0,8.533-3.823,8.533-8.533v-42.667h8.533c4.71,0,8.533-3.823,8.533-8.533v-93.867h68.267V345.6
				c0,4.71,3.823,8.533,8.533,8.533h34.133c4.71,0,8.533-3.823,8.533-8.533v-42.667h8.533c4.71,0,8.533-3.823,8.533-8.533V123.733
				h8.533c4.71,0,8.533-3.823,8.533-8.533V64C512,59.29,508.177,55.467,503.467,55.467z M136.533,285.867H76.8H42.667h-8.533
				V123.733H204.8v34.133H128c-4.71,0-8.533,3.823-8.533,8.533v51.2c0,4.71,3.823,8.533,8.533,8.533h8.533V285.867z M298.667,294.4
				c0,4.71-3.823,8.533-8.533,8.533H204.8c-4.71,0-8.533-3.823-8.533-8.533v-34.133c0-4.71,3.823-8.533,8.533-8.533h85.333
				c4.71,0,8.533,3.823,8.533,8.533V294.4z M349.867,209.067h-204.8h-8.533v-34.133h76.8h85.333H358.4v34.133H349.867z
				 M477.867,285.867h-8.533H435.2h-76.8v-59.733h8.533c4.71,0,8.533-3.823,8.533-8.533v-51.2c0-4.71-3.823-8.533-8.533-8.533H307.2
				v-34.133h170.667V285.867z"/>
			<rect x="213.333" y="268.8" width="68.267" height="17.067"/>
		</g>
	</g>
</g>
<g>
</g>
<g>
</g>
<g>
</g>
<g>
</g>
<g>
</g>
<g>
</g>
<g>
</g>
<g>
</g>
<g>
</g>
<g>
</g>
<g>
</g>
<g>
</g>
<g>
</g>
<g>
</g>
<g>
</g>
</svg>
