<svg height="512" viewBox="0 0 42 60" width="512" xmlns="http://www.w3.org/2000/svg"><g id="Page-1" fill="none" fill-rule="evenodd"><g id="035---Beehive" fill="rgb(0,0,0)" fill-rule="nonzero"><rect id="Rectangle-path" height="4" rx="1" width="42" y="18"/><path id="Shape" d="m2 24v6h38v-6zm4 4c-.55228475 0-1-.4477153-1-1s.44771525-1 1-1 1 .4477153 1 1-.44771525 1-1 1zm21 0h-12c-.5522847 0-1-.4477153-1-1s.4477153-1 1-1h12c.5522847 0 1 .4477153 1 1s-.4477153 1-1 1zm9 0c-.5522847 0-1-.4477153-1-1s.4477153-1 1-1 1 .4477153 1 1-.4477153 1-1 1z"/><path id="Shape" d="m2 32v6h38v-6zm4 4c-.55228475 0-1-.4477153-1-1s.44771525-1 1-1 1 .4477153 1 1-.44771525 1-1 1zm21 0h-12c-.5522847 0-1-.4477153-1-1s.4477153-1 1-1h12c.5522847 0 1 .4477153 1 1s-.4477153 1-1 1zm9 0c-.5522847 0-1-.4477153-1-1s.4477153-1 1-1 1 .4477153 1 1-.4477153 1-1 1z"/><path id="Shape" d="m2 48v6h38v-6zm4 4c-.55228475 0-1-.4477153-1-1s.44771525-1 1-1 1 .4477153 1 1-.44771525 1-1 1zm21 0h-12c-.5522847 0-1-.4477153-1-1s.4477153-1 1-1h12c.5522847 0 1 .4477153 1 1s-.4477153 1-1 1zm9 0c-.5522847 0-1-.4477153-1-1s.4477153-1 1-1 1 .4477153 1 1-.4477153 1-1 1z"/><path id="Shape" d="m2 40v6h38v-6zm4 4c-.55228475 0-1-.4477153-1-1s.44771525-1 1-1 1 .4477153 1 1-.44771525 1-1 1zm21 0h-12c-.5522847 0-1-.4477153-1-1s.4477153-1 1-1h12c.5522847 0 1 .4477153 1 1s-.4477153 1-1 1zm9 0c-.5522847 0-1-.4477153-1-1s.4477153-1 1-1 1 .4477153 1 1-.4477153 1-1 1z"/><path id="Shape" d="m6.382 60h-3.382c-.55228475 0-1-.4477153-1-1v-3h7l-1.724 3.447c-.16926354.3387294-.51533429.5527978-.894.553z"/><path id="Shape" d="m35.618 60h3.382c.5522847 0 1-.4477153 1-1v-3h-7l1.724 3.447c.1692635.3387294.5153343.5527978.894.553z"/><path id="Shape" d="m18.427 5.121c1.1711458-1.17149955 1.1711458-3.07050045 0-4.242-1.1869844-1.13410253-3.0560156-1.13410253-4.243 0-.0785701.08490286-.1520325.17439349-.22.268l-.014-.007c-1.29117-.61247233-2.6922178-.95933369-4.12-1.02-2.35 0-4.2 1.57-4.22 3.59.04597745 1.26693911.77252709 2.41029881 1.9 2.99-.69446026 1.204535-.79409616 2.66217127-.27 3.95l-.642.642c-.25995658.2510745-.3642126.6228779-.27269716.9725073.09151544.3496295.3645604.6226744.71418984.7141899.34962943.0915154.72143285-.0127406.97250732-.2726972l.637-.637c.48328999.2320557 1.01395197.3484589 1.55.34.8364509-.0146816 1.6580517-.2235052 2.4-.61.5933619 1.127412 1.7466311 1.84916 3.02 1.89 2-.02 3.57-1.87 3.57-4.21-.0594166-1.43116474-.4063061-2.835727-1.02-4.13l-.006-.012c.0912708-.06749618.1790507-.13958924.263-.216zm-2.827-2.828c.2525868-.25276541.6208353-.35157685.96603-.25921299.3451946.09236386.6148921.36187074.7075.70700001s-.0059432.71344758-.25853.96621298c-.395481.37816251-1.018519.37816251-1.414 0-.3906582-.39022371-.3911059-1.02322412-.001-1.414zm-5.77-.173c1.2127294.0680285 2.3979513.38817465 3.48.94.0061112.37784601.0838172.75110617.229 1.1-1.1386573.63535895-2.4003908 1.01899413-3.7 1.125-1.2.04-2.22-.72-2.23-1.58.011-.875 1.001-1.585 2.221-1.585zm5.78 9.57c-.87 0-1.6-1.01-1.6-2.21.103538-1.30584987.4883381-2.57384793 1.128-3.717.3511262.14726481.7272793.22568662 1.108.231v.006c.5528472 1.08165475.8730527 2.26709642.94 3.48.004 1.21-.716 2.21-1.576 2.21z"/><path id="Shape" d="m34.37 12.65c.5240962-1.2878287.4244603-2.745465-.27-3.95 1.1289792-.58817309 1.8546591-1.73780275 1.9-3.01-.02-2-1.87-3.57-4.22-3.57-1.4277822.06066631-2.82883.40752767-4.12 1.02l-.013.007c-.0677264-.09379247-.1412006-.18329737-.22-.268-1.1869844-1.13410253-3.0560156-1.13410253-4.243 0-1.1711458 1.17149955-1.1711458 3.07050045 0 4.242.0865626.08022732.1777164.15535408.273.225l-.007.014c-.6209352 1.28863871-.9714658 2.690761-1.03 4.12 0 2.34 1.57 4.19 3.59 4.21 1.2680946-.0414855 2.4150909-.7640931 3-1.89.7419483.3864948 1.5635491.5953184 2.4.61.536048.0084589 1.06671-.1079443 1.55-.34l.638.637c.3923789.3789722 1.0160848.3735524 1.4018186-.0121814s.3911536-1.0094397.0121814-1.4018186zm-2.59-8.53c1.22 0 2.21.71 2.22 1.58s-1.01 1.59-2.24 1.59c-1.2953096-.10846625-2.5529322-.49018366-3.69-1.12.146055-.34870157.2244483-.72200273.231-1.1l.011-.007c1.0772527-.55360821 2.2587383-.87487145 3.468-.943zm-7.18.173c.2510745-.25995658.6228779-.3642126.9725073-.27269716.3496295.09151544.6226744.3645604.7141899.71418984.0915154.34962943-.0127406.72143285-.2726972.97250732-.395481.37816251-1.018519.37816251-1.414 0-.3903819-.39049985-.3903819-1.02350015 0-1.414zm1.422 9.4c-.88 0-1.6-1-1.6-2.21.0659101-1.2137799.3854435-2.40027787.938-3.483v-.006c.3849102-.00522508.7651958-.0846776 1.12-.234.6338087 1.14976162 1.015603 2.4212729 1.12 3.73 0 1.19-.73 2.2-1.58 2.2z"/></g></g></svg>