<?xml version="1.0" encoding="iso-8859-1"?>
<!-- Generator: Adobe Illustrator 19.0.0, SVG Export Plug-In . SVG Version: 6.00 Build 0)  -->
<svg version="1.1" id="Layer_1" xmlns="http://www.w3.org/2000/svg" xmlns:xlink="http://www.w3.org/1999/xlink" x="0px" y="0px"
	 viewBox="0 0 512 512" style="enable-background:new 0 0 512 512;" xml:space="preserve">
<g>
	<g>
		<g>
			<path d="M435.2,85.333h-38.426c-23.851-15.974-48.111-35.601-76.151-61.67C304.444,8.619,280.892,0,256,0
				c-24.883,0-48.444,8.619-64.614,23.663c-28.041,26.069-52.309,45.696-76.151,61.67H76.8c-14.114,0-25.6,11.477-25.6,25.6
				c0,11.426,7.578,21.009,17.929,24.294L98.586,363.52c1.715,13.252,9.412,24.457,20.147,31.095
				C92.578,423.492,76.8,461.747,76.8,503.467c0,4.71,3.823,8.533,8.533,8.533H153.6v-50.543c0-15.983,10.897-29.346,25.6-33.399
				v-26.991h17.067v25.6h119.467v-25.6H332.8v26.991c14.711,4.053,25.6,17.417,25.6,33.399V512h68.267
				c4.71,0,8.533-3.823,8.533-8.533c0-41.719-15.778-79.974-41.924-108.851c10.726-6.639,18.432-17.843,20.139-31.095
				l29.457-228.292c10.359-3.285,17.929-12.868,17.929-24.294C460.8,96.811,449.314,85.333,435.2,85.333z M213.333,343.586
				c-31.292,4.958-59.332,18.637-81.766,38.477c-8.465-3.439-14.822-11.204-16.051-20.727L86.502,136.533h77.252
				c-1.033,5.615-1.621,11.315-1.621,17.067v0.034C143.445,153.421,128,168.875,128,187.733c0,18.816,15.317,34.133,34.133,34.133
				c0,36.386,20.855,67.934,51.2,83.499V343.586z M162.133,170.667V204.8c-9.412,0-17.067-7.654-17.067-17.067
				C145.067,178.321,152.721,170.667,162.133,170.667z M281.6,350.865v7.535c0,14.114-11.486,25.6-25.6,25.6
				c-14.114,0-25.6-11.486-25.6-25.6v-7.535v-38.699c0.529,0.154,1.075,0.196,1.604,0.341c3.063,0.811,6.187,1.468,9.361,1.963
				c0.956,0.154,1.903,0.316,2.859,0.444c3.866,0.486,7.782,0.819,11.776,0.819c3.994,0,7.91-0.333,11.776-0.819
				c0.964-0.128,1.903-0.29,2.859-0.444c3.183-0.495,6.298-1.152,9.361-1.963c0.529-0.145,1.084-0.188,1.604-0.341V350.865z
				 M396.493,361.335c-1.229,9.523-7.595,17.289-16.06,20.727c-22.426-19.84-50.475-33.519-81.766-38.477v-38.221
				c30.345-15.565,51.2-47.113,51.2-83.499c18.825,0,34.133-15.317,34.133-34.133c0.009-18.859-15.36-34.347-34.133-34.099V153.6
				c0-5.751-0.589-11.452-1.621-17.067h77.252L396.493,361.335z M349.867,204.8v-34.133c9.412,0,17.067,7.654,17.067,17.067
				C366.933,197.146,359.279,204.8,349.867,204.8z M435.2,119.467h-97.784H174.583H76.8c-4.702,0-8.533-3.831-8.533-8.533
				c0-4.71,3.831-8.533,8.533-8.533h41.054h276.292H435.2c4.702,0,8.533,3.823,8.533,8.533
				C443.733,115.635,439.902,119.467,435.2,119.467z"/>
			<path d="M323.611,443.731H188.391c-9.771,0-17.724,7.953-17.724,17.724v50.543h170.667v-50.543
				C341.334,451.684,333.39,443.731,323.611,443.731z"/>
		</g>
	</g>
</g>
<g>
</g>
<g>
</g>
<g>
</g>
<g>
</g>
<g>
</g>
<g>
</g>
<g>
</g>
<g>
</g>
<g>
</g>
<g>
</g>
<g>
</g>
<g>
</g>
<g>
</g>
<g>
</g>
<g>
</g>
</svg>
