<?xml version="1.0" encoding="iso-8859-1"?>
<!-- Generator: Adobe Illustrator 19.0.0, SVG Export Plug-In . SVG Version: 6.00 Build 0)  -->
<svg version="1.1" id="Layer_1" xmlns="http://www.w3.org/2000/svg" xmlns:xlink="http://www.w3.org/1999/xlink" x="0px" y="0px"
	 viewBox="0 0 512 512" style="enable-background:new 0 0 512 512;" xml:space="preserve">
<g>
	<g>
		<g>
			<path d="M487.8,59.853l-51.2-8.533c-1.553-0.265-3.123-0.085-4.565,0.486l-31.087,12.45C399.694,28.621,370.399,0,334.465,0
				h-10.197c-4.719,0-8.533,3.823-8.533,8.533v10.197c0,27.418,16.666,51.012,40.388,61.21l-14.345,4.787l-72.328-32.145
				l-33.016-33.015c-1.092-1.092-2.466-1.869-3.968-2.244L164.199,0.256c-1.562-0.393-3.234-0.324-4.762,0.179l-49.894,16.631
				h-8.806c-36.727,0-66.603,29.875-66.603,66.603v10.197c0,4.71,3.814,8.533,8.533,8.533h10.189
				c36.727,0,66.611-29.875,66.611-66.603v-4.045l43.008-14.336l63.556,15.889l25.515,25.506L193.426,102.4h-69.692
				c-21.171,0-38.4,17.229-38.4,38.4c0,9.421,3.541,17.946,9.19,24.636c-15.403,6.443-26.257,21.649-26.257,39.364
				c0,10.914,4.241,20.779,11.008,28.339c-16.324,5.99-28.075,21.547-28.075,39.927c0,14.003,6.878,26.351,17.331,34.133
				c-10.453,7.782-17.331,20.13-17.331,34.133c0,18.381,11.75,33.937,28.075,39.927c-6.767,7.561-11.008,17.425-11.008,28.339
				c0,17.715,10.854,32.922,26.257,39.364c-5.649,6.69-9.19,15.215-9.19,24.636c0,21.171,17.229,38.4,38.4,38.4h162.133
				c21.171,0,38.4-17.229,38.4-38.4c0-9.421-3.541-17.946-9.19-24.636c15.403-6.443,26.257-21.649,26.257-39.364
				c0-10.914-4.241-20.779-11.008-28.339c16.324-5.99,28.075-21.547,28.075-39.927c0-14.003-6.878-26.351-17.331-34.133
				c10.453-7.782,17.331-20.13,17.331-34.133c0-18.381-11.75-33.937-28.075-39.927c6.767-7.561,11.008-17.425,11.008-28.339
				c0-17.715-10.854-32.922-26.257-39.364c5.649-6.69,9.19-15.215,9.19-24.636c0-21.171-17.229-38.4-38.4-38.4h-64.008
				l43.784-32.836l72.226,32.102c1.101,0.486,2.278,0.734,3.464,0.734c0.905,0,1.826-0.145,2.697-0.435L395.7,84.727l0.154-0.068
				h0.009l40.286-16.119l48.853,8.141c4.634,0.777,9.045-2.364,9.813-7.006C495.591,65.024,492.451,60.621,487.8,59.853z
				 M93.867,366.933c-14.114,0-25.6-11.486-25.6-25.6s11.486-25.6,25.6-25.6h59.733v51.2h-42.667H93.867z M285.867,494.933H123.734
				c-11.767,0-21.333-9.574-21.333-21.333s9.566-21.333,21.333-21.333h162.133c11.768,0,21.333,9.574,21.333,21.333
				S297.635,494.933,285.867,494.933z M170.667,366.933v-51.2c0-4.591,0.939-8.96,2.594-12.971c0.23-0.563,0.555-1.084,0.819-1.63
				c0.631-1.34,1.306-2.654,2.108-3.883c0.418-0.648,0.905-1.237,1.357-1.852c0.777-1.033,1.579-2.039,2.458-2.97
				c0.589-0.631,1.22-1.212,1.852-1.801c0.87-0.794,1.783-1.545,2.731-2.244c0.734-0.546,1.485-1.075,2.261-1.553
				c0.99-0.614,2.014-1.152,3.063-1.664c0.819-0.401,1.63-0.811,2.483-1.152c1.203-0.469,2.449-0.819,3.712-1.152
				c0.768-0.205,1.502-0.461,2.287-0.614c2.082-0.401,4.215-0.648,6.409-0.648s4.326,0.247,6.409,0.648
				c0.785,0.154,1.519,0.41,2.287,0.614c1.263,0.333,2.517,0.683,3.712,1.152c0.853,0.341,1.664,0.751,2.483,1.152
				c1.05,0.512,2.074,1.05,3.063,1.664c0.776,0.478,1.527,1.007,2.261,1.553c0.947,0.7,1.86,1.451,2.731,2.244
				c0.632,0.589,1.263,1.169,1.852,1.801c0.888,0.93,1.681,1.937,2.458,2.97c0.461,0.614,0.939,1.203,1.357,1.843
				c0.802,1.237,1.476,2.551,2.116,3.891c0.265,0.555,0.58,1.067,0.811,1.63c1.655,4.011,2.594,8.38,2.594,12.971v51.2H170.667z
				 M341.334,341.333c0,14.114-11.486,25.6-25.6,25.6h-17.067h-42.667v-51.2h59.733
				C329.848,315.733,341.334,327.219,341.334,341.333z M285.867,179.2h12.8c14.114,0,25.6,11.486,25.6,25.6s-11.486,25.6-25.6,25.6
				H110.934c-14.114,0-25.6-11.486-25.6-25.6s11.486-25.6,25.6-25.6h12.8H285.867z"/>
			<circle cx="375.467" cy="179.2" r="8.533"/>
			<circle cx="469.334" cy="290.133" r="8.533"/>
			<circle cx="418.134" cy="443.733" r="8.533"/>
			<circle cx="34.134" cy="145.067" r="8.533"/>
			<circle cx="25.601" cy="469.333" r="8.533"/>
		</g>
	</g>
</g>
<g>
</g>
<g>
</g>
<g>
</g>
<g>
</g>
<g>
</g>
<g>
</g>
<g>
</g>
<g>
</g>
<g>
</g>
<g>
</g>
<g>
</g>
<g>
</g>
<g>
</g>
<g>
</g>
<g>
</g>
</svg>
